<svg viewBox="0 0 64 64" xmlns="http://www.w3.org/2000/svg">
  <circle cx="32" cy="32" r="32" fill="#080F1E"/>
  <circle cx="32" cy="32" r="30" fill="none" stroke="rgba(245,224,144,0.25)" stroke-width="0.8"/>
  <g fill="none" stroke="#F5E090" stroke-width="0.9" stroke-linecap="round" stroke-linejoin="round">
    <path d="M32 7.5 C19.7 7.5,11.2 16.5,11.2 28.8 C11.2 35.2,13.3 40.5,17.1 44.8 C18.7 52.3,25.6 57,32 57 C38.4 57,45.3 52.3,46.9 44.8 C50.7 40.5,52.8 35.2,52.8 28.8 C52.8 16.5,44.3 7.5,32 7.5Z" opacity="0.90"/>
    <path d="M32 8.5 L32 56" opacity="0.40" stroke-dasharray="2 3"/>
    <path d="M22.7 15.5 Q17.6 20.8,20.8 26.7 T18.7 37.9 T24 47.5" opacity="0.85"/>
    <path d="M16.5 24.5 Q21.3 27.2,19.7 32.6 T24.5 41" opacity="0.70"/>
    <path d="M27.7 17.1 Q25.6 24,28.8 29.9 T25.6 39.5 T28.8 49.1" opacity="0.75"/>
    <path d="M41.3 15.5 Q46.4 20.8,43.2 26.7 T45.3 37.9 T40 47.5" opacity="0.85"/>
    <path d="M47.5 24.5 Q42.7 27.2,44.3 32.6 T39.5 41" opacity="0.70"/>
    <path d="M36.3 17.1 Q38.4 24,35.2 29.9 T38.4 39.5 T35.2 49.1" opacity="0.75"/>
    <circle cx="21.3" cy="26.7" r="1.4" fill="#F5E090"/>
    <circle cx="42.7" cy="26.7" r="1.4" fill="#F5E090"/>
    <circle cx="28"   cy="34.7" r="1.4" fill="#F5E090"/>
    <circle cx="36"   cy="34.7" r="1.4" fill="#F5E090"/>
    <circle cx="24.5" cy="43.2" r="1.2" fill="#F5E090"/>
    <circle cx="39.5" cy="43.2" r="1.2" fill="#F5E090"/>
    <circle cx="32"   cy="48"   r="1.2" fill="#F5E090"/>
  </g>
</svg>
